# xmcd CD database file
# Copyright (C) 1993-1998 Ti Kan
# 
# Track frame offsets:
#     150
#     10083
#     20850
#     30938
#     43313
#     55480
#     71640
#     88070
#     97225
#     109508
#     123310
#     134990
#     147730
#     163655
# 
# Disc length: 2323 seconds
# 
# Revision: 1
# Processed by: cddbd v1.4b41PL1 Copyright (c) Steve Scherf et al.
# Submitted via: DiscPlay 4.0.4
# 
DISCID=d409110e
DTITLE=Various Artist - Country's Greatest Hits
DYEAR=1900
DGENRE=
TTITLE0=Please Release Me
TTITLE1=Blame It On The Times
TTITLE2=Realease Me
TTITLE3=Loving You Is Killing Me
TTITLE4=You Win Again
TTITLE5=Devil Went Down To Georgia
TTITLE6=For The Good Times
TTITLE7=This Old House
TTITLE8=Don't Think Twice
TTITLE9=Jambalaya
TTITLE10=Take This Job and Shove It
TTITLE11=Behind Closed Doors
TTITLE12=You Needed Me
TTITLE13=I Can't Help It
EXTD=
EXTT0=
EXTT1=
EXTT2=
EXTT3=
EXTT4=
EXTT5=
EXTT6=
EXTT7=
EXTT8=
EXTT9=
EXTT10=
EXTT11=
EXTT12=
EXTT13=
PLAYORDER=
